<?xml version="1.0" standalone="no"?>
<!DOCTYPE svg PUBLIC "-//W3C//DTD SVG 20010904//EN"
 "http://www.w3.org/TR/2001/REC-SVG-20010904/DTD/svg10.dtd">
<svg version="1.0" xmlns="http://www.w3.org/2000/svg"
 width="1024.000000pt" height="1024.000000pt" viewBox="0 0 1024.000000 1024.000000"
 preserveAspectRatio="xMidYMid meet">

<g transform="translate(0.000000,1024.000000) scale(0.100000,-0.100000)"
fill="#000000" stroke="none">
<path d="M5104 8450 c-5 -5 -81 -47 -169 -95 -88 -48 -275 -152 -415 -232
-371 -212 -456 -259 -650 -368 -96 -54 -243 -140 -326 -190 -83 -51 -218 -130
-300 -175 -187 -104 -914 -532 -1170 -689 l-102 -63 -6 -461 c-4 -254 -6 -901
-4 -1437 l3 -975 355 -231 c195 -127 479 -313 630 -412 151 -100 478 -313 725
-475 248 -161 509 -332 580 -379 236 -155 568 -370 718 -465 l147 -92 43 30
c75 55 467 309 657 427 102 63 399 256 660 429 508 336 981 646 1231 808 85
54 245 159 355 231 l202 132 6 68 c6 66 11 1595 8 2416 l-2 398 -22 14 c-13 8
-30 16 -38 18 -8 2 -19 7 -25 11 -20 16 -578 340 -892 519 -104 58 -314 179
-468 268 -469 272 -660 381 -900 514 -126 71 -304 172 -395 226 -232 137 -380
220 -380 213 0 -3 -11 2 -24 10 -13 9 -27 12 -32 7z m2568 -3168 l-3 -272
-150 -98 c-82 -53 -354 -232 -604 -397 -250 -165 -581 -383 -737 -485 -155
-102 -376 -248 -492 -324 -116 -77 -278 -182 -360 -233 -83 -52 -163 -106
-179 -119 -26 -22 -32 -23 -51 -11 -11 7 -171 112 -355 233 -184 120 -408 266
-498 324 -225 143 -868 564 -1306 855 l-362 240 -3 273 c-1 149 -1 272 1 272
23 0 639 -403 1804 -1178 399 -266 731 -482 737 -480 13 4 167 104 794 518
470 311 669 442 959 631 82 53 229 149 327 214 99 64 234 151 300 193 67 41
134 86 150 99 16 13 29 23 30 21 0 -2 0 -126 -2 -276z m-4917 -802 c77 -48
303 -195 503 -326 199 -132 565 -372 813 -534 248 -162 579 -380 736 -483 156
-104 290 -190 297 -193 6 -2 62 28 123 68 62 40 193 125 293 188 99 63 253
163 343 221 89 58 284 185 432 282 149 96 369 240 490 320 512 336 656 429
768 495 l117 70 0 -287 c-1 -284 -1 -286 -23 -302 -12 -9 -143 -95 -292 -191
-148 -96 -499 -325 -780 -508 -280 -183 -670 -436 -865 -562 -195 -126 -408
-265 -474 -309 l-118 -80 -272 179 c-149 98 -370 242 -491 320 -121 78 -337
218 -480 311 -143 93 -367 239 -498 323 -132 84 -367 238 -523 342 l-284 188
0 289 0 290 23 -12 c12 -7 85 -51 162 -99z"/>
</g>
</svg>
