<?xml version="1.0" standalone="no"?>
<!DOCTYPE svg PUBLIC "-//W3C//DTD SVG 20010904//EN"
 "http://www.w3.org/TR/2001/REC-SVG-20010904/DTD/svg10.dtd">
<svg version="1.0" xmlns="http://www.w3.org/2000/svg"
 width="1200.000000pt" height="1200.000000pt" viewBox="0 0 1200.000000 1200.000000"
 preserveAspectRatio="xMidYMid meet">

<g transform="translate(0.000000,1200.000000) scale(0.100000,-0.100000)"
fill="#000000" stroke="none">
<path d="M1104 9903 c22 -72 822 -2871 834 -2915 8 -32 17 -58 21 -58 3 0 79
293 167 652 l162 651 -73 301 c-41 166 -99 405 -129 531 -31 127 -90 371 -132
543 l-76 312 -390 0 c-366 0 -389 -1 -384 -17z"/>
<path d="M3071 9883 c-22 -87 -129 -504 -466 -1818 -196 -764 -358 -1398 -361
-1407 -5 -17 12 -18 264 -18 l269 0 46 178 c25 97 125 490 221 872 288 1139
302 1194 308 1184 3 -5 56 -205 117 -444 61 -239 138 -541 171 -670 33 -129
81 -318 107 -420 l47 -184 135 540 135 540 -189 719 c-103 396 -202 775 -219
843 l-30 122 -273 0 -272 0 -10 -37z"/>
<path d="M4417 8287 c-219 -897 -398 -1635 -397 -1639 0 -5 145 -8 323 -8
l323 0 233 818 c128 449 336 1179 462 1622 126 443 232 813 235 823 5 16 -18
17 -388 17 l-393 0 -398 -1633z"/>
<path d="M6595 9055 c-519 -81 -892 -439 -1001 -960 -26 -123 -26 -402 -1
-527 97 -481 419 -826 882 -943 312 -80 678 -44 947 91 120 61 218 132 313
230 403 413 458 1111 128 1612 -50 75 -181 211 -262 272 -146 110 -359 196
-552 224 -125 19 -341 19 -454 1z m366 -549 c186 -40 334 -172 414 -368 47
-114 59 -195 52 -352 -8 -210 -65 -353 -193 -483 -147 -150 -357 -204 -579
-147 -289 74 -475 401 -436 766 21 186 80 318 195 434 76 75 156 122 256 148
71 19 207 20 291 2z"/>
<path d="M9435 9059 c-183 -27 -402 -112 -543 -211 -276 -195 -453 -510 -493
-875 -57 -529 196 -1030 633 -1249 198 -99 368 -138 613 -137 244 0 414 37
606 134 326 163 549 465 626 847 25 125 25 404 -1 527 -92 442 -382 775 -791
909 -177 59 -460 82 -650 55z m354 -554 c105 -25 188 -72 266 -150 178 -177
244 -459 174 -740 -81 -324 -356 -520 -667 -476 -266 39 -449 223 -508 512
-23 115 -15 325 16 424 72 227 224 380 426 429 79 19 214 19 293 1z"/>
</g>
</svg>
